<svg width="30" height="18" viewBox="0 0 30 18" fill="none" xmlns="http://www.w3.org/2000/svg">
    <rect width="30" height="18" rx="4" fill="#FCEFE7"/>
    <path d="M12.0312 6.67188C12.0312 7.1875 11.8828 7.64062 11.5859 8.03125C11.2969 8.42188 10.8867 8.75781 10.3555 9.03906C10.9648 9.41406 11.2695 9.96484 11.2695 10.6914C11.2695 11.293 11.0898 11.8242 10.7305 12.2852C10.3164 12.8164 9.78125 13.082 9.125 13.082C8.82031 13.082 8.54297 13.0156 8.29297 12.8828C8.04297 12.75 7.91797 12.6016 7.91797 12.4375C7.94922 12.2812 7.97656 12.168 8 12.0977C8.08594 11.8711 8.19531 11.7578 8.32812 11.7578C8.42969 11.7578 8.63281 11.875 8.9375 12.1094C9.08594 12.2266 9.21875 12.2852 9.33594 12.2852C9.5625 12.2852 9.76562 12.1328 9.94531 11.8281C10.125 11.5156 10.2148 11.168 10.2148 10.7852C10.2148 10.4961 10.168 10.2461 10.0742 10.0352C9.98047 9.81641 9.82422 9.61719 9.60547 9.4375C9.55078 9.45312 9.46094 9.47266 9.33594 9.49609C9.21094 9.51953 9.09375 9.53125 8.98438 9.53125C8.84375 9.53125 8.73828 9.51953 8.66797 9.49609C8.60547 9.46484 8.57422 9.40234 8.57422 9.30859C8.57422 8.91016 8.76562 8.6875 9.14844 8.64062C9.74219 8.5625 10.1875 8.38672 10.4844 8.11328C10.8672 7.70703 11.0586 7.25781 11.0586 6.76562C11.0586 6.48438 11 6.26172 10.8828 6.09766C10.7656 5.93359 10.6016 5.85156 10.3906 5.85156C9.88281 5.85156 9.33203 6.32812 8.73828 7.28125C8.12109 8.28125 7.59766 9.57422 7.16797 11.1602C7.05859 11.6055 6.95312 11.9727 6.85156 12.2617C6.75781 12.5508 6.67969 12.75 6.61719 12.8594C6.5625 12.9688 6.50781 13.0312 6.45312 13.0469C6.39844 13.0703 6.27344 13.082 6.07812 13.082C5.90625 13.082 5.79297 13.0625 5.73828 13.0234C5.68359 12.9844 5.65625 12.9062 5.65625 12.7891C5.65625 12.5 5.81641 11.9492 6.13672 11.1367C6.45703 10.3164 6.67969 9.64453 6.80469 9.12109C6.92969 8.58984 6.99219 8.07031 6.99219 7.5625C6.99219 7.16406 6.95703 6.79297 6.88672 6.44922C6.81641 6.10547 6.70703 5.80859 6.55859 5.55859C6.54297 5.53516 6.53125 5.50391 6.52344 5.46484C6.52344 5.45703 6.51953 5.44141 6.51172 5.41797C6.51172 5.37891 6.61719 5.30469 6.82812 5.19531C7.03906 5.08594 7.21094 5.01953 7.34375 4.99609C7.53906 5.25391 7.67188 5.55859 7.74219 5.91016C7.8125 6.26172 7.84766 6.64844 7.84766 7.07031L7.83594 7.62109C8.15625 6.94922 8.48047 6.41797 8.80859 6.02734C9.37891 5.34766 9.98438 5.00781 10.625 5.00781C11.0234 5.00781 11.3555 5.16797 11.6211 5.48828C11.8945 5.80078 12.0312 6.19531 12.0312 6.67188ZM16.8164 10.832V11.8164C15.6133 12.6836 14.4453 13.1172 13.3125 13.1172C12.8984 13.1172 12.582 12.9492 12.3633 12.6133C12.1523 12.2695 12.0469 11.8828 12.0469 11.4531C12.0469 10.6016 12.3008 9.84766 12.8086 9.19141C13.3164 8.52734 13.9023 8.19531 14.5664 8.19531C15.1914 8.19531 15.5039 8.49219 15.5039 9.08594C15.5039 9.61719 15.2305 10.082 14.6836 10.4805C14.3945 10.6914 13.9258 10.9297 13.2773 11.1953L13.0312 11.3008V11.3477C13.0312 11.6133 13.0742 11.8281 13.1602 11.9922C13.2852 12.2344 13.4844 12.3555 13.7578 12.3555C14.2266 12.3555 14.6992 12.2383 15.1758 12.0039C15.6523 11.7617 16.1992 11.3711 16.8164 10.832ZM13.1484 10.5273C13.6328 10.3477 14.0195 10.1406 14.3086 9.90625C14.5977 9.66406 14.7422 9.42578 14.7422 9.19141C14.7422 9.01953 14.6523 8.93359 14.4727 8.93359C14.2148 8.93359 13.9531 9.09375 13.6875 9.41406C13.4219 9.72656 13.2422 10.0977 13.1484 10.5273ZM17.2188 8.5L18.0859 5.88672H19.0703L18.2383 8.40625L19.3281 8.39453L19.1875 9.09766L18.7539 9.08594L17.9922 9.10938L17.9336 9.30859C17.8242 9.70703 17.7422 10.0625 17.6875 10.375C17.6328 10.6797 17.6055 10.9492 17.6055 11.1836C17.6055 11.8555 17.7227 12.1914 17.957 12.1914C18.082 12.1914 18.293 12.0898 18.5898 11.8867C18.957 11.6367 19.3594 11.2852 19.7969 10.832V11.8281C19.2812 12.3047 18.8008 12.6484 18.3555 12.8594C18.043 13.0078 17.7734 13.082 17.5469 13.082C17.25 13.082 17.0117 12.9297 16.832 12.625C16.6602 12.3125 16.5742 11.9023 16.5742 11.3945C16.5742 11.0742 16.5938 10.8047 16.6328 10.5859C16.6719 10.3672 16.7656 9.99219 16.9141 9.46094L17.0078 9.10938L16.6445 9.16797L16.6914 8.69922C16.6992 8.63672 16.7539 8.59375 16.8555 8.57031C16.9648 8.54688 17.0859 8.52344 17.2188 8.5ZM25.1797 10.832V11.8281C24.2734 12.6641 23.5625 13.082 23.0469 13.082C22.8047 13.082 22.6406 12.9922 22.5547 12.8125C22.4766 12.625 22.4375 12.4062 22.4375 12.1562V11.957C22.0625 12.3711 21.75 12.6602 21.5 12.8242C21.2578 12.9883 21.0195 13.0703 20.7852 13.0703C20.4336 13.0703 20.125 12.9062 19.8594 12.5781C19.6016 12.2422 19.4727 11.8477 19.4727 11.3945C19.4727 10.5508 19.7383 9.82031 20.2695 9.20312C20.7617 8.63281 21.2969 8.34766 21.875 8.34766C22.1094 8.34766 22.3203 8.41016 22.5078 8.53516C22.7031 8.65234 22.8867 8.83984 23.0586 9.09766L23.2578 8.35938H24.2305L23.6211 10.8203C23.5664 11.0156 23.5195 11.2266 23.4805 11.4531C23.4414 11.6719 23.4219 11.8242 23.4219 11.9102C23.4219 12.0586 23.4688 12.1328 23.5625 12.1328C23.6875 12.1328 23.8906 12.0195 24.1719 11.793C24.4609 11.5586 24.7969 11.2383 25.1797 10.832ZM22.625 10.9727L22.8945 9.80078C22.6289 9.48828 22.4531 9.29688 22.3672 9.22656C22.2422 9.125 22.1094 9.07422 21.9688 9.07422C21.5938 9.07422 21.2539 9.28906 20.9492 9.71875C20.6523 10.1406 20.5039 10.6172 20.5039 11.1484C20.5039 11.4844 20.5586 11.7578 20.668 11.9688C20.7773 12.1719 20.9219 12.2734 21.1016 12.2734C21.3359 12.2734 21.6172 12.1016 21.9453 11.7578C22.1719 11.5 22.3984 11.2383 22.625 10.9727Z" fill="#FF6632"/>
</svg>
