<svg width="18" height="14" viewBox="0 0 18 14" fill="none" xmlns="http://www.w3.org/2000/svg">
<mask id="path-1-inside-1_2098_7048" fill="white">
<path fill-rule="evenodd" clip-rule="evenodd" d="M4.75777 0.484464C4.90622 0.187552 5.20969 0 5.54165 0H12.4584C12.7903 0 13.0938 0.187553 13.2422 0.484465L14.1011 2.20225H16.8315C17.4768 2.20225 18 2.72542 18 3.37079V12.8315C18 13.4768 17.4768 14 16.8315 14H1.16854C0.523172 14 0 13.4768 0 12.8315V3.37078C0 2.72542 0.523173 2.20225 1.16854 2.20225H3.89888L4.75777 0.484464ZM9 11C10.6569 11 12 9.65685 12 8C12 6.34315 10.6569 5 9 5C7.34315 5 6 6.34315 6 8C6 9.65685 7.34315 11 9 11Z"/>
</mask>
<path fill-rule="evenodd" clip-rule="evenodd" d="M4.75777 0.484464C4.90622 0.187552 5.20969 0 5.54165 0H12.4584C12.7903 0 13.0938 0.187553 13.2422 0.484465L14.1011 2.20225H16.8315C17.4768 2.20225 18 2.72542 18 3.37079V12.8315C18 13.4768 17.4768 14 16.8315 14H1.16854C0.523172 14 0 13.4768 0 12.8315V3.37078C0 2.72542 0.523173 2.20225 1.16854 2.20225H3.89888L4.75777 0.484464ZM9 11C10.6569 11 12 9.65685 12 8C12 6.34315 10.6569 5 9 5C7.34315 5 6 6.34315 6 8C6 9.65685 7.34315 11 9 11Z" fill="white"/>
<path d="M4.75777 0.484464L3.68446 -0.0521927L3.68445 -0.052192L4.75777 0.484464ZM13.2422 0.484465L12.1689 1.02112V1.02112L13.2422 0.484465ZM14.1011 2.20225L13.0278 2.7389L13.3595 3.40225H14.1011V2.20225ZM3.89888 2.20225V3.40225H4.64052L4.97219 2.7389L3.89888 2.20225ZM5.54165 -1.2C4.75516 -1.2 4.03618 -0.755645 3.68446 -0.0521927L5.83108 1.02112C5.77627 1.13075 5.66422 1.2 5.54165 1.2V-1.2ZM12.4584 -1.2H5.54165V1.2H12.4584V-1.2ZM14.3155 -0.0521908C13.9638 -0.755645 13.2448 -1.2 12.4584 -1.2V1.2C12.3358 1.2 12.2237 1.13075 12.1689 1.02112L14.3155 -0.0521908ZM15.1744 1.66559L14.3155 -0.0521915L12.1689 1.02112L13.0278 2.7389L15.1744 1.66559ZM16.8315 1.00225H14.1011V3.40225H16.8315V1.00225ZM19.2 3.37079C19.2 2.06268 18.1396 1.00225 16.8315 1.00225V3.40225C16.8293 3.40225 16.8243 3.40158 16.8188 3.39928C16.8142 3.39732 16.8112 3.39501 16.8092 3.39303C16.8072 3.39106 16.8049 3.38803 16.803 3.3834C16.8007 3.37797 16.8 3.37292 16.8 3.37079H19.2ZM19.2 12.8315V3.37079H16.8V12.8315H19.2ZM16.8315 15.2C18.1396 15.2 19.2 14.1396 19.2 12.8315H16.8C16.8 12.8293 16.8007 12.8243 16.803 12.8188C16.8049 12.8142 16.8072 12.8112 16.8092 12.8092C16.8112 12.8072 16.8142 12.8049 16.8188 12.803C16.8243 12.8007 16.8293 12.8 16.8315 12.8V15.2ZM1.16854 15.2H16.8315V12.8H1.16854V15.2ZM-1.2 12.8315C-1.2 14.1396 -0.13957 15.2 1.16854 15.2V12.8C1.17067 12.8 1.17572 12.8007 1.18115 12.803C1.18579 12.8049 1.18881 12.8072 1.19079 12.8092C1.19276 12.8112 1.19508 12.8142 1.19704 12.8188C1.19933 12.8243 1.2 12.8293 1.2 12.8315H-1.2ZM-1.2 3.37078V12.8315H1.2V3.37078H-1.2ZM1.16854 1.00225C-0.139568 1.00225 -1.2 2.06268 -1.2 3.37078H1.2C1.2 3.37292 1.19933 3.37797 1.19703 3.3834C1.19508 3.38803 1.19276 3.39106 1.19078 3.39303C1.18881 3.39501 1.18579 3.39732 1.18115 3.39928C1.17572 3.40158 1.17067 3.40225 1.16854 3.40225V1.00225ZM3.89888 1.00225H1.16854V3.40225H3.89888V1.00225ZM3.68445 -0.052192L2.82556 1.66559L4.97219 2.7389L5.83108 1.02112L3.68445 -0.052192ZM10.8 8C10.8 8.99411 9.99411 9.8 9 9.8V12.2C11.3196 12.2 13.2 10.3196 13.2 8H10.8ZM9 6.2C9.99411 6.2 10.8 7.00589 10.8 8H13.2C13.2 5.6804 11.3196 3.8 9 3.8V6.2ZM7.2 8C7.2 7.00589 8.00589 6.2 9 6.2V3.8C6.6804 3.8 4.8 5.6804 4.8 8H7.2ZM9 9.8C8.00589 9.8 7.2 8.99411 7.2 8H4.8C4.8 10.3196 6.6804 12.2 9 12.2V9.8Z" fill="white" mask="url(#path-1-inside-1_2098_7048)"/>
</svg>
