<svg width="16" height="14" viewBox="0 0 16 14" fill="none" xmlns="http://www.w3.org/2000/svg">
    <path d="M3.82485 13.0192C5.46985 13.0192 6.62485 11.8992 6.62485 10.0792C6.62485 8.39918 5.32985 7.38418 3.82485 7.38418C3.68485 7.38418 3.57985 7.38418 3.43985 7.41918C3.43985 5.17918 4.59485 3.67418 6.86985 2.44918L5.67985 0.174177C2.17985 1.99418 0.429854 4.68918 0.429854 8.25918C0.429854 11.2692 1.61985 13.0192 3.82485 13.0192ZM12.5749 13.0192C14.1849 13.0192 15.3749 11.8992 15.3749 10.0792C15.3749 8.39918 14.0799 7.38418 12.5749 7.38418C12.4349 7.38418 12.3299 7.38418 12.1899 7.41918C12.1899 5.17918 13.3449 3.67418 15.6199 2.44918L14.4299 0.174177C10.9299 1.99418 9.17985 4.68918 9.17985 8.25918C9.17985 11.2692 10.3699 13.0192 12.5749 13.0192Z" fill="white"/>
</svg>
